<?xml version="1.0" encoding="UTF-8" standalone="yes"?>
<svg version="1.2" width="60.000000pt" height="60.000000pt" viewBox="0 0 147.000000 128.000000" preserveAspectRatio="xMidYMid meet" baseProfile="tiny-ps" xmlns="http://www.w3.org/2000/svg">
  <title>bimi-svg-tiny-12-ps</title>
  <g transform="translate(0.000000,128.000000) scale(0.050000,-0.050000)" fill="#2563eb" stroke="none">
    <path d="M1262 2129 c-132 -83 -332 -151 -468 -161 -143 -10 -141 -1 -129&#xA;-412 16 -528 62 -668 293 -897 157 -155 403 -308 469 -291 126 31 431 274 535&#xA;425 74 108 74 107 -32 107 -49 0 -90 -8 -90 -17 0 -54 -376 -363 -441 -363&#xA;-49 0 -335 221 -411 318 -135 170 -168 301 -168 663 l0 297 85 22 c167 43 326&#xA;101 412 150 85 49 88 49 140 13 82 -57 308 -140 421 -155 90 -12 102 -19 102&#xA;-61 0 -42 9 -47 81 -47 l81 0 -6 104 -6 104 -190 45 c-110 27 -266 84 -370&#xA;137 -100 49 -185 89 -190 88 -6 -1 -59 -32 -118 -69z"/>
    <path d="M2542 1812 c-16 -18 -50 -24 -109 -17 -82 9 -92 4 -163 -73 -71 -77&#xA;-84 -82 -184 -82 -67 0 -104 -8 -96 -20 33 -54 220 -22 290 50 69 71 218 101&#xA;250 50 40 -65 147 11 111 79 -26 47 -66 53 -99 13z"/>
    <path d="M1153 1725 c9 -34 -3 -42 -84 -54 -144 -22 -149 -26 -149 -124 l0&#xA;-88 61 31 c33 18 55 40 49 51 -7 10 3 13 22 5 23 -9 30 -5 20 10 -9 16 -2 19&#xA;22 11 20 -8 29 -6 21 3 -23 25 57 72 97 57 26 -11 30 -7 17 15 -13 22 -11 23&#xA;12 5 16 -12 97 -22 184 -21 95 1 165 -8 179 -22 19 -19 18 -24 -1 -24 -14 0&#xA;-20 -9 -13 -20 7 -11 3 -20 -9 -20 -11 0 -21 7 -21 15 0 9 -19 27 -41 41 -39&#xA;24 -40 23 -18 -17 20 -38 18 -41 -17 -30 -42 13 -78 -38 -42 -60 13 -8 12 -22&#xA;-3 -40 -18 -22 -14 -26 19 -19 23 4 42 0 42 -10 0 -24 -87 -17 -105 9 -9 14&#xA;-14 12 -15 -4 0 -39 -56 -29 -103 18 -32 32 -40 35 -31 11 8 -22 -1 -41 -27&#xA;-54 -29 -16 -39 -15 -39 4 -1 19 -6 18 -19 -3 -25 -40 -4 -68 30 -40 15 12 38&#xA;16 51 8 16 -10 19 -7 8 11 -11 17 -8 21 7 12 13 -8 18 -23 12 -33 -6 -11 0&#xA;-19 13 -19 14 0 19 -6 12 -13 -7 -7 -25 -3 -40 10 -33 27 -92 -45 -165 -203&#xA;-62 -133 -61 -169 5 -238 71 -74 79 -71 95 33 7 48 29 109 49 135 20 25 43 67&#xA;51 92 8 26 40 75 70 110 31 35 60 73 64 84 4 11 13 18 21 15 7 -2 52 13 100&#xA;35 92 42 304 55 326 20 24 -39 50 -19 50 37 0 69 -69 138 -158 156 -36 7 -70&#xA;24 -75 38 -15 38 -58 50 -247 71 -93 10 -199 24 -234 30 -56 11 -62 7 -53 -27z"/>
    <path d="M1158 1610 c-2 -11 -2 -26 -1 -32 1 -7 -42 -48 -96 -90 -140 -112&#xA;-147 -128 -119 -269 27 -140 37 -144 93 -43 24 42 61 93 84 113 22 20 34 46&#xA;26 59 -22 35 -23 72 -2 72 11 0 14 9 7 20 -7 11 1 14 19 8 20 -8 31 -1 31 20&#xA;0 18 14 32 32 32 21 0 28 11 20 31 -12 31 7 30 106 -7 17 -6 24 0 18 18 -5 17&#xA;-44 31 -97 34 -49 4 -95 17 -103 30 -9 13 -17 15 -18 4z"/>
    <path d="M2450 1540 c-7 -11 -97 -20 -201 -20 -113 0 -189 -8 -189 -20 0 -12&#xA;76 -20 189 -20 104 0 194 -9 201 -20 36 -59 121 -7 100 60 -13 42 -79 55 -100&#xA;20z"/>
    <path d="M2044 1385 c12 -14 51 -25 88 -25 38 0 68 -9 68 -20 0 -29 51 -25 76&#xA;6 38 45 -3 67 -129 65 -96 -1 -119 -6 -103 -26z"/>
    <path d="M1537 1360 c-138 -73 -243 -234 -140 -214 87 18 203 -131 203 -260&#xA;l0 -55 51 51 51 51 -71 117 c-39 65 -71 138 -71 163 0 54 40 147 63 147 9 0&#xA;17 9 17 20 0 28 -19 24 -103 -20z"/>
    <path d="M2684 1376 c-13 -13 -67 -21 -126 -18 -80 3 -113 -5 -146 -36 -39&#xA;-37 -74 -41 -348 -46 -171 -4 -304 -14 -304 -25 0 -32 624 -13 662 21 36 32&#xA;249 39 268 8 20 -33 67 -23 89 19 34 63 -45 127 -95 77z"/>
    <path d="M1925 1165 c-321 -8 -325 -45 -5 -45 157 0 240 -7 240 -21 0 -12 20&#xA;-19 45 -15 30 4 45 20 45 46 0 46 13 45 -325 35z"/>
    <path d="M1332 1046 c-74 -75 -112 -283 -61 -335 32 -31 175 -43 237 -19 37&#xA;14 46 197 12 218 -11 7 -20 29 -20 50 0 73 -119 134 -168 86z m104 -50 c43&#xA;-43 27 -76 -36 -76 -45 0 -60 9 -60 37 0 64 50 85 96 39z m-10 -176 c11 -42&#xA;-28 -84 -42 -43 -4 13 -15 19 -24 13 -9 -5 -12 8 -6 30 14 52 58 52 72 0z"/>
    <path d="M2430 1041 c-77 -8 -259 -10 -405 -5 -237 9 -265 6 -265 -23 0 -30&#xA;41 -33 390 -33 261 0 403 -8 428 -23 52 -33 106 -7 98 48 -7 52 -36 56 -246&#xA;36z"/>
  </g>
</svg>